normalP10_grf.mot
version=1
nRows=27
nColumns=19
inDegrees=yes
endheader
time	1_ground_force_vx	1_ground_force_vy	1_ground_force_vz	1_ground_force_px	1_ground_force_py	1_ground_force_pz	1_ground_torque_x	1_ground_torque_y	1_ground_torque_z	2_ground_force_vx	2_ground_force_vy	2_ground_force_vz	2_ground_force_px	2_ground_force_py	2_ground_force_pz	2_ground_torque_x	2_ground_torque_y	2_ground_torque_z
            2.073000	           -0.163121	            0.100003	           -0.097419	            0.294315	            0.002740	           -0.293148	           -0.013307	            0.001204	           -0.022016	          -31.228776	          558.174001	          -33.660307	            0.955237	            0.000603	           -0.183258	            0.082978	           -1.483131	            0.089439
            2.074000	           -0.116533	            0.257196	           -0.073932	            0.294315	            0.002740	           -0.293148	            0.020353	           -0.004831	            0.185348	          -31.124204	          557.132912	          -33.625453	            0.956115	            0.000601	           -0.183222	            0.082530	           -1.477313	            0.089162
            2.075000	           -0.161200	            0.579057	           -0.088232	            0.294315	            0.002740	           -0.293148	            0.086860	            0.001379	           -0.063677	          -31.116154	          557.370434	          -33.485541	            0.956511	            0.000599	           -0.183106	            0.079055	           -1.416087	            0.085075
            2.076000	           -0.148026	            0.098414	           -0.051481	            0.294315	            0.002740	           -0.293148	           -0.013128	            0.016736	            0.143934	          -31.012623	          555.929698	          -33.436523	            0.957246	            0.000597	           -0.182934	            0.076748	           -1.375778	            0.082746
            2.077000	           -0.138305	            0.577448	           -0.103562	            0.294315	            0.002740	           -0.293148	           -0.013304	            0.002078	            0.102143	          -31.021335	          555.608389	          -33.314212	            0.957732	            0.000596	           -0.182900	            0.073740	           -1.320717	            0.079190
            2.078000	           -0.124048	            0.338887	           -0.066063	            0.294315	            0.002740	           -0.293148	            0.036931	            0.003568	           -0.042768	          -30.945844	          555.207119	          -33.223030	            0.958036	            0.000594	           -0.182764	            0.071525	           -1.283251	            0.076788
            2.079000	           -0.142013	           -0.300527	           -0.075836	            0.294315	            0.002740	           -0.293148	            0.003705	           -0.002801	            0.123441	          -30.931409	          554.965014	          -33.061920	            0.958777	            0.000592	           -0.182770	            0.068606	           -1.230907	            0.073331
            2.080000	           -0.140051	            0.180068	           -0.058939	            0.294315	            0.002740	           -0.293148	            0.070174	            0.004663	           -0.042754	          -30.894727	          554.402777	          -32.925164	            0.959398	            0.000590	           -0.182553	            0.066151	           -1.187081	            0.070499
            2.081000	           -0.119856	           -0.458966	           -0.061012	            0.294315	            0.002740	           -0.293148	           -0.029901	            0.012830	            0.040498	          -30.811025	          554.240387	          -32.786706	            0.960020	            0.000588	           -0.182477	            0.063349	           -1.139552	            0.067411
            2.082000	           -0.149126	           -0.140634	           -0.075278	            0.294315	            0.002740	           -0.293148	            0.003729	            0.016547	            0.081940	          -30.765859	          553.998959	          -32.648540	            0.960389	            0.000587	           -0.182423	            0.059908	           -1.078759	            0.063574
            2.083000	           -0.132862	            0.099570	           -0.066925	            0.294315	            0.002740	           -0.293148	           -0.046773	            0.002253	            0.019399	          -30.682574	          553.677142	          -32.503200	            0.960950	            0.000585	           -0.182387	            0.057838	           -1.043706	            0.061270
            2.084000	           -0.111508	           -0.299140	           -0.098800	            0.294315	            0.002740	           -0.293148	            0.037052	            0.005226	           -0.042405	          -30.569625	          552.956902	          -32.351698	            0.961290	            0.000585	           -0.182453	            0.056069	           -1.014201	            0.059338
            2.085000	           -0.123485	            0.498677	           -0.088601	            0.294315	            0.002740	           -0.293148	            0.036796	           -0.004714	           -0.042920	          -30.468800	          553.512789	          -32.164272	            0.962028	            0.000582	           -0.182375	            0.053088	           -0.964428	            0.056042
            2.086000	           -0.118934	           -0.220738	           -0.067983	            0.294315	            0.002740	           -0.293148	            0.020523	            0.001061	            0.061282	          -30.362104	          553.350419	          -32.041273	            0.962426	            0.000581	           -0.182179	            0.049771	           -0.907078	            0.052524
            2.087000	           -0.110188	            0.019274	           -0.074825	            0.294315	            0.002740	           -0.293148	            0.037070	           -0.000873	           -0.001093	          -30.218124	          552.789413	          -31.865976	            0.962827	            0.000580	           -0.182204	            0.047358	           -0.866339	            0.049941
            2.088000	           -0.131244	            0.497561	           -0.050296	            0.294315	            0.002740	           -0.293148	            0.070480	            0.008896	            0.040172	          -30.111239	          552.707013	          -31.719578	            0.963330	            0.000578	           -0.182108	            0.044422	           -0.815396	            0.046795
            2.089000	           -0.147799	            0.179180	           -0.051398	            0.294315	            0.002740	           -0.293148	            0.036701	           -0.009460	            0.081562	          -29.959987	          551.986155	          -31.552385	            0.963751	            0.000577	           -0.182115	            0.041414	           -0.763019	            0.043615
            2.090000	           -0.147059	            0.338524	           -0.058485	            0.294315	            0.002740	           -0.293148	           -0.097134	           -0.005512	            0.122779	          -29.745102	          552.141874	          -31.412716	            0.964415	            0.000574	           -0.181833	            0.039593	           -0.734950	            0.041813
            2.091000	           -0.124232	            0.339593	           -0.058534	            0.294315	            0.002740	           -0.293148	            0.137069	           -0.006524	           -0.084229	          -29.568754	          552.219410	          -31.288605	            0.965051	            0.000573	           -0.181877	            0.037343	           -0.697404	            0.039515
            2.092000	           -0.147908	            0.179555	           -0.051357	            0.294315	            0.002740	           -0.293148	            0.003482	            0.008686	           -0.042725	          -29.368489	          552.697472	          -31.078492	            0.965306	            0.000573	           -0.182063	            0.034697	           -0.652984	            0.036718
            2.093000	           -0.119587	           -0.378067	           -0.076141	            0.294315	            0.002740	           -0.293148	           -0.013384	            0.003596	           -0.063286	          -29.138112	          552.934664	          -30.930503	            0.965700	            0.000572	           -0.182009	            0.031001	           -0.588278	            0.032908
            2.094000	           -0.109940	            0.098190	           -0.051609	            0.294315	            0.002740	           -0.293148	            0.087283	            0.003024	            0.102603	          -28.884322	          553.330945	          -30.759222	            0.965998	            0.000570	           -0.181789	            0.028895	           -0.553541	            0.030771
            2.095000	           -0.124650	            0.258217	           -0.043447	            0.294315	            0.002740	           -0.293148	            0.020204	            0.007750	            0.102368	          -28.676552	          553.728973	          -30.572226	            0.966598	            0.000570	           -0.182116	            0.026566	           -0.512973	            0.028322
            2.096000	           -0.111627	           -0.300458	           -0.091198	            0.294315	            0.002740	           -0.293148	            0.003781	            0.004648	            0.082026	          -28.484731	          553.886850	          -30.378677	            0.966885	            0.000569	           -0.182140	            0.024096	           -0.468547	            0.025698
            2.097000	           -0.118219	           -0.058722	           -0.075081	            0.294315	            0.002740	           -0.293148	            0.019799	            0.004091	           -0.022067	          -28.201582	          553.803238	          -30.155256	            0.967462	            0.000567	           -0.181982	            0.021728	           -0.426679	            0.023233
            2.098000	           -0.147137	            0.338617	           -0.043212	            0.294315	            0.002740	           -0.293148	            0.036798	           -0.007332	            0.040075	          -27.984386	          554.919301	          -29.888660	            0.967792	            0.000567	           -0.182066	            0.018695	           -0.370713	            0.019967
            2.099000	           -0.135234	           -0.459199	           -0.053472	            0.294315	            0.002740	           -0.293148	            0.037031	           -0.002909	            0.040573	          -27.722975	          555.315161	          -29.663418	            0.968164	            0.000565	           -0.181847	            0.016467	           -0.329844	            0.017619
